# xmcd
#
# Track frame offsets: 
#        150
#        2769
#        10177
#        17613
#        29166
#        33324
#        40244
#        53423
#        66902
#        78322
#        90470
#        97000
#        102259
#        109340
#        121495
#        126799
#        133926
#        147503
#        156642
#        165930
#        173880
#        182583
#        191062
#
# Disc length: 2638 seconds
#
# Revision: 0
# Processed by: cddbd v1.5.2PL0 Copyright (c) Steve Scherf et al.
# Submitted via: ExactAudioCopyFreeDBPlugin 1.0
#
DISCID=390a4c17
DTITLE=Etta Baker - Etta Baker - Banjo
DYEAR=2009
DGENRE=Blues
TTITLE0=Playing The Banjo
TTITLE1=Peace Behind The Bridge
TTITLE2=Cripple Creek
TTITLE3=Going Down The Road Feeling Bad
TTITLE4=Daddy
TTITLE5=West End Blues
TTITLE6=Sourwood Mountain
TTITLE7=Going Down The Road Feeling Bad (2)
TTITLE8=Careless Love
TTITLE9=Old Joe Clark
TTITLE10=Love Somebody
TTITLE11=Johnson Boys
TTITLE12=Careless Love (2)
TTITLE13=Walking Jaybird
TTITLE14=Rainbow
TTITLE15=Railroad Bill
TTITLE16=Marching Jaybird
TTITLE17=Going Down The Road Feeling Bad (3)
TTITLE18=John Henry
TTITLE19=Cripple Creek (2)
TTITLE20=Johnson Boys (2)
TTITLE21=Sourwood Mountain (2)
TTITLE22=Johnson Boys (3)
EXTD=
EXTT0=
EXTT1=
EXTT2=
EXTT3=
EXTT4=
EXTT5=
EXTT6=
EXTT7=
EXTT8=
EXTT9=
EXTT10=
EXTT11=
EXTT12=
EXTT13=
EXTT14=
EXTT15=
EXTT16=
EXTT17=
EXTT18=
EXTT19=
EXTT20=
EXTT21=
EXTT22=
PLAYORDER=
